<mxfile host="app.diagrams.net" modified="2023-02-18T21:31:25.262Z" agent="5.0 (Windows NT 10.0; Win64; x64) AppleWebKit/537.36 (KHTML, like Gecko) Chrome/110.0.0.0 Safari/537.36 Edg/110.0.1587.46" etag="d6GuxTYSo8B35VvVnNVZ" version="20.2.5" type="github">
  <diagram id="VhiP85pZfyptuw0zaLAi" name="Page-1">
    <mxGraphModel dx="1422" dy="754" grid="1" gridSize="10" guides="1" tooltips="1" connect="1" arrows="1" fold="1" page="1" pageScale="1" pageWidth="850" pageHeight="1100" math="0" shadow="0">
      <root>
        <mxCell id="0" />
        <mxCell id="1" parent="0" />
        <mxCell id="rwcxHSOUYtNQeJdxa6Ve-1" value="" style="rounded=0;whiteSpace=wrap;html=1;" vertex="1" parent="1">
          <mxGeometry x="10" y="110" width="910" height="610" as="geometry" />
        </mxCell>
        <mxCell id="1RKD86iNlfKtYbiQ4ut8-26" value="" style="rounded=0;whiteSpace=wrap;html=1;fontSize=13;fillColor=#fff2cc;strokeColor=none;" parent="1" vertex="1">
          <mxGeometry x="40" y="210" width="200" height="290" as="geometry" />
        </mxCell>
        <mxCell id="1RKD86iNlfKtYbiQ4ut8-25" value="" style="rounded=0;whiteSpace=wrap;html=1;fontSize=13;fillColor=#dae8fc;strokeColor=none;" parent="1" vertex="1">
          <mxGeometry x="260" y="155" width="470" height="430" as="geometry" />
        </mxCell>
        <mxCell id="1RKD86iNlfKtYbiQ4ut8-7" value="" style="rounded=1;whiteSpace=wrap;html=1;fontSize=13;fillColor=#ffe6cc;strokeColor=#d79b00;" parent="1" vertex="1">
          <mxGeometry x="425" y="190" width="230" height="160" as="geometry" />
        </mxCell>
        <mxCell id="1RKD86iNlfKtYbiQ4ut8-5" style="edgeStyle=orthogonalEdgeStyle;rounded=0;orthogonalLoop=1;jettySize=auto;html=1;entryX=0.5;entryY=0;entryDx=0;entryDy=0;entryPerimeter=0;fontSize=13;" parent="1" source="1RKD86iNlfKtYbiQ4ut8-1" target="1RKD86iNlfKtYbiQ4ut8-3" edge="1">
          <mxGeometry relative="1" as="geometry" />
        </mxCell>
        <mxCell id="1RKD86iNlfKtYbiQ4ut8-23" style="edgeStyle=none;rounded=0;orthogonalLoop=1;jettySize=auto;html=1;entryX=0;entryY=0.5;entryDx=0;entryDy=0;fontSize=13;" parent="1" source="1RKD86iNlfKtYbiQ4ut8-1" target="1RKD86iNlfKtYbiQ4ut8-9" edge="1">
          <mxGeometry relative="1" as="geometry" />
        </mxCell>
        <mxCell id="1RKD86iNlfKtYbiQ4ut8-1" value="Signed JWT Validator" style="rounded=1;whiteSpace=wrap;html=1;fillColor=#f8cecc;strokeColor=#b85450;" parent="1" vertex="1">
          <mxGeometry x="70" y="290" width="140" height="60" as="geometry" />
        </mxCell>
        <mxCell id="1RKD86iNlfKtYbiQ4ut8-2" value="Metaplugins Backend" style="text;html=1;strokeColor=none;fillColor=none;align=center;verticalAlign=middle;whiteSpace=wrap;rounded=0;fontSize=13;fontStyle=1" parent="1" vertex="1">
          <mxGeometry x="70" y="260" width="140" height="30" as="geometry" />
        </mxCell>
        <mxCell id="1RKD86iNlfKtYbiQ4ut8-4" style="edgeStyle=orthogonalEdgeStyle;rounded=0;orthogonalLoop=1;jettySize=auto;html=1;entryX=0.426;entryY=0.997;entryDx=0;entryDy=0;fontSize=13;entryPerimeter=0;" parent="1" source="1RKD86iNlfKtYbiQ4ut8-3" target="1RKD86iNlfKtYbiQ4ut8-1" edge="1">
          <mxGeometry relative="1" as="geometry">
            <Array as="points">
              <mxPoint x="130" y="380" />
              <mxPoint x="130" y="380" />
            </Array>
          </mxGeometry>
        </mxCell>
        <mxCell id="1RKD86iNlfKtYbiQ4ut8-3" value="DB" style="strokeWidth=2;html=1;shape=mxgraph.flowchart.database;whiteSpace=wrap;fontSize=13;fillColor=#f5f5f5;fontColor=#333333;strokeColor=#666666;" parent="1" vertex="1">
          <mxGeometry x="110" y="410" width="60" height="40" as="geometry" />
        </mxCell>
        <mxCell id="1RKD86iNlfKtYbiQ4ut8-19" style="edgeStyle=none;rounded=0;orthogonalLoop=1;jettySize=auto;html=1;entryX=1;entryY=0.5;entryDx=0;entryDy=0;fontSize=13;exitX=0;exitY=0.5;exitDx=0;exitDy=0;" parent="1" source="1RKD86iNlfKtYbiQ4ut8-7" target="1RKD86iNlfKtYbiQ4ut8-1" edge="1">
          <mxGeometry relative="1" as="geometry" />
        </mxCell>
        <mxCell id="1RKD86iNlfKtYbiQ4ut8-6" value="GET /v1/visitors" style="rounded=1;whiteSpace=wrap;html=1;fontSize=13;fillColor=#7CBDFE;strokeColor=#56517e;" parent="1" vertex="1">
          <mxGeometry x="430" y="210" width="210" height="20" as="geometry" />
        </mxCell>
        <mxCell id="1RKD86iNlfKtYbiQ4ut8-8" value="EPNS controller" style="text;html=1;strokeColor=none;fillColor=none;align=center;verticalAlign=middle;whiteSpace=wrap;rounded=0;fontSize=13;fontStyle=1" parent="1" vertex="1">
          <mxGeometry x="435" y="170" width="210" height="20" as="geometry" />
        </mxCell>
        <mxCell id="1RKD86iNlfKtYbiQ4ut8-9" value="EPNS Site Registration validator&amp;nbsp;" style="rounded=1;whiteSpace=wrap;html=1;fontSize=13;fillColor=#ffe6cc;strokeColor=#d79b00;" parent="1" vertex="1">
          <mxGeometry x="280" y="370" width="120" height="150" as="geometry" />
        </mxCell>
        <mxCell id="1RKD86iNlfKtYbiQ4ut8-11" style="edgeStyle=orthogonalEdgeStyle;rounded=0;orthogonalLoop=1;jettySize=auto;html=1;entryX=0.5;entryY=1;entryDx=0;entryDy=0;fontSize=13;" parent="1" source="1RKD86iNlfKtYbiQ4ut8-10" target="1RKD86iNlfKtYbiQ4ut8-9" edge="1">
          <mxGeometry relative="1" as="geometry">
            <Array as="points">
              <mxPoint x="340" y="590" />
              <mxPoint x="340" y="590" />
            </Array>
          </mxGeometry>
        </mxCell>
        <mxCell id="1RKD86iNlfKtYbiQ4ut8-22" style="edgeStyle=orthogonalEdgeStyle;rounded=0;orthogonalLoop=1;jettySize=auto;html=1;entryX=0.412;entryY=1.001;entryDx=0;entryDy=0;entryPerimeter=0;fontSize=13;" parent="1" source="1RKD86iNlfKtYbiQ4ut8-10" target="1RKD86iNlfKtYbiQ4ut8-12" edge="1">
          <mxGeometry relative="1" as="geometry">
            <Array as="points">
              <mxPoint x="574" y="540" />
            </Array>
          </mxGeometry>
        </mxCell>
        <mxCell id="1RKD86iNlfKtYbiQ4ut8-10" value="DB" style="strokeWidth=2;html=1;shape=mxgraph.flowchart.database;whiteSpace=wrap;fontSize=13;fillColor=#f5f5f5;fontColor=#333333;strokeColor=#666666;" parent="1" vertex="1">
          <mxGeometry x="280" y="610" width="420" height="70" as="geometry" />
        </mxCell>
        <mxCell id="1RKD86iNlfKtYbiQ4ut8-21" style="edgeStyle=orthogonalEdgeStyle;rounded=0;orthogonalLoop=1;jettySize=auto;html=1;fontSize=13;entryX=0.749;entryY=0.017;entryDx=0;entryDy=0;entryPerimeter=0;" parent="1" source="1RKD86iNlfKtYbiQ4ut8-12" target="1RKD86iNlfKtYbiQ4ut8-10" edge="1">
          <mxGeometry relative="1" as="geometry">
            <mxPoint x="600" y="600" as="targetPoint" />
            <Array as="points">
              <mxPoint x="595" y="611" />
            </Array>
          </mxGeometry>
        </mxCell>
        <mxCell id="F25pgrCN1vnFoOimrVF--10" style="rounded=0;orthogonalLoop=1;jettySize=auto;html=1;dashed=1;exitX=1;exitY=0.5;exitDx=0;exitDy=0;" parent="1" source="1RKD86iNlfKtYbiQ4ut8-12" target="1RKD86iNlfKtYbiQ4ut8-15" edge="1">
          <mxGeometry relative="1" as="geometry" />
        </mxCell>
        <mxCell id="1RKD86iNlfKtYbiQ4ut8-12" value="" style="rounded=1;whiteSpace=wrap;html=1;fontSize=13;fillColor=#ffe6cc;strokeColor=#d79b00;" parent="1" vertex="1">
          <mxGeometry x="480" y="380" width="230" height="160" as="geometry" />
        </mxCell>
        <mxCell id="1RKD86iNlfKtYbiQ4ut8-13" value="Getting visitors for site" style="rounded=1;whiteSpace=wrap;html=1;fontSize=13;fillColor=#e1d5e7;strokeColor=#9673a6;" parent="1" vertex="1">
          <mxGeometry x="500" y="400" width="190" height="20" as="geometry" />
        </mxCell>
        <mxCell id="1RKD86iNlfKtYbiQ4ut8-14" value="EPNS Service&amp;nbsp;" style="text;html=1;strokeColor=none;fillColor=none;align=center;verticalAlign=middle;whiteSpace=wrap;rounded=0;fontSize=13;fontStyle=1" parent="1" vertex="1">
          <mxGeometry x="490" y="360" width="210" height="20" as="geometry" />
        </mxCell>
        <mxCell id="1RKD86iNlfKtYbiQ4ut8-17" style="edgeStyle=none;rounded=0;orthogonalLoop=1;jettySize=auto;html=1;entryX=1.017;entryY=0.45;entryDx=0;entryDy=0;fontSize=13;entryPerimeter=0;" parent="1" source="1RKD86iNlfKtYbiQ4ut8-15" target="1RKD86iNlfKtYbiQ4ut8-7" edge="1">
          <mxGeometry relative="1" as="geometry" />
        </mxCell>
        <mxCell id="1RKD86iNlfKtYbiQ4ut8-15" value="Actor" style="shape=umlActor;verticalLabelPosition=bottom;verticalAlign=top;html=1;outlineConnect=0;fontSize=13;" parent="1" vertex="1">
          <mxGeometry x="840" y="290" width="40" height="80" as="geometry" />
        </mxCell>
        <mxCell id="1RKD86iNlfKtYbiQ4ut8-24" style="edgeStyle=none;rounded=0;orthogonalLoop=1;jettySize=auto;html=1;entryX=0.004;entryY=0.406;entryDx=0;entryDy=0;fontSize=13;entryPerimeter=0;" parent="1" source="1RKD86iNlfKtYbiQ4ut8-9" target="1RKD86iNlfKtYbiQ4ut8-12" edge="1">
          <mxGeometry relative="1" as="geometry" />
        </mxCell>
        <mxCell id="F25pgrCN1vnFoOimrVF--1" value="POST /v1/visitors" style="rounded=1;whiteSpace=wrap;html=1;fontSize=13;fillColor=#76CC9E;strokeColor=#82b366;" parent="1" vertex="1">
          <mxGeometry x="430" y="240" width="210" height="20" as="geometry" />
        </mxCell>
        <mxCell id="F25pgrCN1vnFoOimrVF--2" value="GET /v1/visitors/{:visitorID}" style="rounded=1;whiteSpace=wrap;html=1;fontSize=13;fillColor=#89C0FE;strokeColor=#82b366;" parent="1" vertex="1">
          <mxGeometry x="433" y="270" width="209" height="20" as="geometry" />
        </mxCell>
        <mxCell id="F25pgrCN1vnFoOimrVF--4" value="PATCH /v1/visitors/{:visitorID}" style="rounded=1;whiteSpace=wrap;html=1;fontSize=13;fillColor=#7FECC4;strokeColor=#82b366;" parent="1" vertex="1">
          <mxGeometry x="433" y="300" width="209" height="20" as="geometry" />
        </mxCell>
        <mxCell id="F25pgrCN1vnFoOimrVF--5" value="Register new visitor" style="rounded=1;whiteSpace=wrap;html=1;fontSize=13;fillColor=#e1d5e7;strokeColor=#9673a6;" parent="1" vertex="1">
          <mxGeometry x="500" y="430" width="190" height="20" as="geometry" />
        </mxCell>
        <mxCell id="F25pgrCN1vnFoOimrVF--6" value="Patching visitor" style="rounded=1;whiteSpace=wrap;html=1;fontSize=13;fillColor=#e1d5e7;strokeColor=#9673a6;" parent="1" vertex="1">
          <mxGeometry x="610" y="460" width="80" height="70" as="geometry" />
        </mxCell>
        <mxCell id="HRjQU_ZrTMmKkZkEVw-G-3" style="edgeStyle=orthogonalEdgeStyle;rounded=0;orthogonalLoop=1;jettySize=auto;html=1;entryX=0;entryY=0.5;entryDx=0;entryDy=0;dashed=1;dashPattern=1 1;" parent="1" source="1RKD86iNlfKtYbiQ4ut8-9" target="HRjQU_ZrTMmKkZkEVw-G-2" edge="1">
          <mxGeometry relative="1" as="geometry" />
        </mxCell>
        <mxCell id="HRjQU_ZrTMmKkZkEVw-G-4" style="edgeStyle=orthogonalEdgeStyle;rounded=0;orthogonalLoop=1;jettySize=auto;html=1;entryX=-0.011;entryY=0.504;entryDx=0;entryDy=0;entryPerimeter=0;dashed=1;dashPattern=1 1;" parent="1" source="HRjQU_ZrTMmKkZkEVw-G-2" target="F25pgrCN1vnFoOimrVF--6" edge="1">
          <mxGeometry relative="1" as="geometry" />
        </mxCell>
        <mxCell id="HRjQU_ZrTMmKkZkEVw-G-2" value="Category validator" style="rounded=1;whiteSpace=wrap;html=1;fontSize=13;fillColor=#e1d5e7;strokeColor=#9673a6;" parent="1" vertex="1">
          <mxGeometry x="500" y="460" width="80" height="70" as="geometry" />
        </mxCell>
      </root>
    </mxGraphModel>
  </diagram>
</mxfile>
